<?xml version="1.0" encoding="utf-8"?>
<!-- Generator: Adobe Illustrator 16.0.0, SVG Export Plug-In . SVG Version: 6.00 Build 0)  -->
<!DOCTYPE svg PUBLIC "-//W3C//DTD SVG 1.1//EN" "http://www.w3.org/Graphics/SVG/1.1/DTD/svg11.dtd">
<svg version="1.1" id="Layer_1" xmlns="http://www.w3.org/2000/svg" xmlns:xlink="http://www.w3.org/1999/xlink" x="0px" y="0px"
	 width="325.473px" height="93.373px" viewBox="174 230.614 325.473 93.373" enable-background="new 174 230.614 325.473 93.373"
	 xml:space="preserve">
<text transform="matrix(1 0 0 1 174 314)" font-family="'ArialMT'" font-size="12">  </text>
<text transform="matrix(1 0 0 1 174 314)" fill="#424143" font-family="'Avenir-Light'" font-size="39.9446">Drupaldelphia</text>
<text transform="matrix(1 0 0 1 413.9668 314)" font-family="'ArialMT'" font-size="12"> </text>
<text transform="matrix(1 0 0 1 336 271)" font-family="'ArialMT'" font-size="12">  </text>
<text transform="matrix(1 0 0 1 336 271)" fill="#424143" font-family="'Arvo-Bold'" font-size="36.4892">2013</text>
<text transform="matrix(1 0 0 1 413.9668 271)" font-family="'ArialMT'" font-size="12"> </text>
<path fill="#B5121B" d="M433.996,315.889v-54.748c0,0-0.822-21.443,24.909-29.381c0,0,12.41-3.376,23.451,1.46
	c11.042,4.837,14.6,13.688,15.328,15.511c0.729,1.826,4.016,10.951-0.729,22.721c0,0-4.38,9.673-13.231,12.137
	c-8.85,2.464-20.984,0.273-23.725-10.859c0,0-0.729-3.741,0.73-7.3c0,0,1.461,2.737,2.828,3.651c1.37,0.912,3.559,2.28,7.393,1.823
	c3.831-0.457,9.124-4.835,8.851-10.675c-0.272-5.84-5.475-12.045-14.233-9.581c0,0-8.577,2.463-8.668,13.687v31.298
	c0,0-0.092,4.746-0.912,6.843c0,0-2.01,8.28-10.859,11.212C445.128,313.688,435.182,316.163,433.996,315.889"/>
<path fill="#FFFFFF" d="M475.775,246.044l0.007-0.004c0,0-7.438-1.734-10.541-5.038c0,0,1.971,3.562-3.49,7.77l0.006,0.001
	c-5.938,4.043-9.143,11.422-7.51,18.868c2.146,9.777,11.812,15.964,21.587,13.82c9.778-2.146,15.965-11.809,13.82-21.588
	C488.085,252.724,482.491,247.498,475.775,246.044"/>
<path fill="#424143" d="M466.731,259.35c0,0,3.092-2,5.456,0c2.363,2.001,4.956,5.275,7.003,4.82c0,0-2.819,4.274-7.139,2.637
	c-4.32-1.637-3.548-6.548-3.548-6.548S468.505,259.213,466.731,259.35"/>
<path fill="#FFFFFF" d="M469.368,260.441c0,0-0.228,3.911,1.911,4.593c0,0-0.364-1.728,0.954-2.456L469.368,260.441z"/>
<path fill="#424143" d="M491.991,261.729c0,0-1.746-2.359-4.374-0.717c-2.626,1.642-5.659,4.511-7.619,3.769
	c0,0,1.777,4.348,6.286,3.346c4.511-1.003,3.968-5.631,3.968-5.631S490.256,261.341,491.991,261.729"/>
<path fill="#FFFFFF" d="M489.558,261.851c0,0,0,4.502-2.954,5.139c0,0,0.406-1.879-0.795-2.789L489.558,261.851z"/>
<path fill="#424143" d="M474.417,275.72c0,0,2.881-1.197,5.247,1.804c0,0,0.722,0.553,0.711-0.348
	c-0.024-1.733-5.321-6.276-9.05-4.457c0,0-2.184,1.072-1.228,3.183C470.818,277.494,473.874,277.432,474.417,275.72"/>
</svg>
