<?xml version="1.0" encoding="utf-8"?>
<!-- Generator: Adobe Illustrator 16.0.0, SVG Export Plug-In . SVG Version: 6.00 Build 0)  -->
<!DOCTYPE svg PUBLIC "-//W3C//DTD SVG 1.1//EN" "http://www.w3.org/Graphics/SVG/1.1/DTD/svg11.dtd">
<svg version="1.1" id="Layer_1" xmlns="http://www.w3.org/2000/svg" xmlns:xlink="http://www.w3.org/1999/xlink" x="0px" y="0px"
	 width="325.434px" height="93.52px" viewBox="174.039 230.614 325.434 93.52"
	 enable-background="new 174.039 230.614 325.434 93.52" xml:space="preserve">
<g enable-background="new    ">
	<path fill="#424143" d="M177.554,285.866h8.748c2.45,0,4.527,0.3,6.231,0.899c1.704,0.599,3.122,1.365,4.254,2.297
		c1.131,0.933,2.023,1.964,2.676,3.096c0.652,1.132,1.131,2.217,1.438,3.255c0.306,1.039,0.499,1.978,0.579,2.816
		s0.12,1.432,0.12,1.777c0,0.347-0.04,0.938-0.12,1.777s-0.273,1.778-0.579,2.816c-0.307,1.039-0.786,2.124-1.438,3.256
		c-0.653,1.132-1.545,2.164-2.676,3.096c-1.132,0.933-2.55,1.697-4.254,2.297c-1.704,0.599-3.781,0.898-6.231,0.898h-8.748V285.866z
		 M180.19,311.751h5.433c1.864,0,3.608-0.233,5.233-0.699c1.624-0.466,3.036-1.179,4.234-2.137c1.198-0.959,2.143-2.178,2.836-3.655
		c0.692-1.478,1.039-3.229,1.039-5.253c0-2.023-0.346-3.774-1.039-5.253c-0.693-1.478-1.638-2.696-2.836-3.654
		c-1.198-0.959-2.61-1.671-4.234-2.138c-1.625-0.465-3.369-0.698-5.233-0.698h-5.433V311.751z"/>
	<path fill="#424143" d="M206.833,300.886c0-0.346-0.014-0.765-0.04-1.258c-0.027-0.493-0.047-0.992-0.06-1.498
		c-0.014-0.506-0.034-0.979-0.06-1.418c-0.027-0.439-0.04-0.779-0.04-1.019h2.397c0.026,0.692,0.046,1.357,0.06,1.997
		c0.013,0.639,0.046,1.052,0.1,1.238c0.612-1.092,1.398-1.983,2.357-2.677c0.958-0.691,2.13-1.038,3.515-1.038
		c0.24,0,0.472,0.02,0.699,0.06c0.226,0.04,0.459,0.087,0.699,0.14l-0.28,2.357c-0.319-0.106-0.626-0.16-0.918-0.16
		c-1.039,0-1.938,0.167-2.696,0.499c-0.759,0.334-1.385,0.793-1.877,1.378c-0.493,0.587-0.859,1.272-1.099,2.058
		c-0.24,0.786-0.359,1.632-0.359,2.536v10.066h-2.396V300.886z"/>
</g>
<g enable-background="new    ">
	<path fill="#424143" d="M233.755,308.955c0,0.346,0.013,0.766,0.04,1.258c0.026,0.493,0.046,0.992,0.06,1.498
		c0.013,0.506,0.033,0.979,0.06,1.418c0.026,0.439,0.04,0.779,0.04,1.019h-2.396c-0.027-0.692-0.047-1.358-0.06-1.997
		c-0.014-0.64-0.047-1.052-0.1-1.238h-0.12c-0.479,1.012-1.278,1.884-2.397,2.616c-1.118,0.732-2.423,1.099-3.915,1.099
		c-1.438,0-2.616-0.227-3.535-0.68c-0.919-0.452-1.638-1.044-2.157-1.777c-0.519-0.731-0.873-1.577-1.059-2.536
		c-0.187-0.959-0.28-1.943-0.28-2.956v-10.984h2.397v10.864c0,0.746,0.066,1.472,0.2,2.178c0.133,0.705,0.366,1.338,0.699,1.897
		c0.333,0.559,0.799,1.005,1.398,1.338s1.378,0.499,2.336,0.499c0.879,0,1.711-0.153,2.497-0.459
		c0.785-0.306,1.464-0.772,2.037-1.398c0.573-0.625,1.025-1.411,1.358-2.356c0.333-0.945,0.499-2.058,0.499-3.336v-9.227h2.397
		V308.955z"/>
</g>
<g enable-background="new    ">
	<path fill="#424143" d="M238.868,295.693h2.396v3.235h0.08c0.373-0.64,0.839-1.191,1.398-1.658c0.56-0.465,1.165-0.852,1.817-1.158
		c0.652-0.306,1.338-0.532,2.058-0.679c0.719-0.146,1.424-0.22,2.117-0.22c1.411,0,2.709,0.239,3.895,0.719
		c1.185,0.479,2.21,1.152,3.076,2.018s1.538,1.891,2.018,3.075c0.479,1.186,0.719,2.483,0.719,3.895c0,1.412-0.24,2.71-0.719,3.895
		c-0.479,1.186-1.152,2.211-2.018,3.076s-1.891,1.538-3.076,2.018c-1.185,0.479-2.483,0.719-3.895,0.719
		c-0.693,0-1.398-0.074-2.117-0.22c-0.719-0.146-1.405-0.373-2.058-0.679c-0.653-0.307-1.258-0.692-1.817-1.159
		c-0.559-0.465-1.025-1.019-1.398-1.657h-0.08v12.343h-2.396V295.693z M241.025,304.92c0,1.039,0.2,2.018,0.599,2.937
		s0.945,1.718,1.638,2.396c0.692,0.679,1.504,1.218,2.437,1.618c0.932,0.399,1.943,0.599,3.036,0.599
		c1.119,0,2.13-0.199,3.036-0.599c0.905-0.4,1.677-0.939,2.316-1.618s1.125-1.478,1.458-2.396s0.5-1.897,0.5-2.937
		c0-1.038-0.167-2.017-0.5-2.936s-0.819-1.718-1.458-2.396c-0.639-0.68-1.412-1.219-2.316-1.618
		c-0.906-0.399-1.917-0.599-3.036-0.599c-1.092,0-2.104,0.199-3.036,0.599c-0.933,0.399-1.745,0.938-2.437,1.618
		c-0.693,0.679-1.238,1.478-1.638,2.396S241.025,303.882,241.025,304.92z"/>
	<path fill="#424143" d="M278.133,306.398c0,0.905,0.006,1.718,0.02,2.437c0.013,0.719,0.033,1.385,0.06,1.997
		c0.026,0.613,0.06,1.186,0.1,1.718c0.04,0.533,0.1,1.065,0.18,1.598h-2.237c-0.16-0.905-0.24-1.903-0.24-2.996h-0.08
		c-0.693,1.198-1.552,2.077-2.577,2.637c-1.025,0.56-2.324,0.839-3.895,0.839c-0.799,0-1.584-0.1-2.357-0.3
		c-0.772-0.199-1.465-0.52-2.077-0.959c-0.613-0.439-1.112-1.005-1.498-1.697c-0.386-0.692-0.579-1.531-0.579-2.517
		c0-1.411,0.359-2.529,1.078-3.355c0.719-0.825,1.604-1.444,2.656-1.857c1.052-0.412,2.17-0.679,3.355-0.799
		c1.185-0.12,2.23-0.18,3.136-0.18h2.796v-1.118c0-1.598-0.493-2.742-1.478-3.436c-0.986-0.692-2.224-1.038-3.715-1.038
		c-2.131,0-4.008,0.692-5.632,2.077l-1.398-1.638c0.878-0.853,1.97-1.498,3.275-1.938c1.304-0.439,2.556-0.659,3.755-0.659
		c2.237,0,4.021,0.526,5.353,1.578c1.331,1.052,1.997,2.749,1.997,5.093V306.398z M273.34,304.88c-1.012,0-1.991,0.067-2.936,0.2
		c-0.946,0.134-1.798,0.359-2.557,0.679c-0.759,0.32-1.365,0.746-1.817,1.278c-0.453,0.533-0.679,1.198-0.679,1.997
		c0,0.56,0.126,1.059,0.379,1.498c0.253,0.439,0.579,0.799,0.979,1.079c0.399,0.279,0.845,0.493,1.338,0.639
		c0.492,0.146,0.992,0.22,1.498,0.22c1.278,0,2.33-0.186,3.155-0.56c0.825-0.372,1.484-0.858,1.978-1.458
		c0.492-0.599,0.832-1.277,1.019-2.037c0.186-0.759,0.28-1.523,0.28-2.297v-1.238H273.34z"/>
</g>
<g enable-background="new    ">
	<path fill="#424143" d="M282.927,283.949h2.396v30.198h-2.396V283.949z"/>
</g>
<g enable-background="new    ">
	<path fill="#424143" d="M307.293,310.912h-0.08c-0.373,0.639-0.838,1.192-1.397,1.657c-0.56,0.467-1.166,0.853-1.818,1.159
		c-0.653,0.306-1.338,0.532-2.057,0.679c-0.719,0.146-1.425,0.22-2.117,0.22c-1.412,0-2.716-0.24-3.915-0.719
		c-1.199-0.479-2.224-1.152-3.076-2.018c-0.853-0.865-1.518-1.891-1.997-3.076c-0.479-1.185-0.719-2.482-0.719-3.895
		c0-1.411,0.239-2.709,0.719-3.895c0.479-1.185,1.145-2.21,1.997-3.075c0.852-0.865,1.877-1.538,3.076-2.018
		c1.198-0.479,2.502-0.719,3.915-0.719c0.692,0,1.398,0.073,2.117,0.22c0.719,0.146,1.404,0.373,2.057,0.679
		c0.652,0.307,1.258,0.693,1.818,1.158c0.559,0.467,1.024,1.019,1.397,1.658h0.08v-14.979h2.396v30.198h-2.396V310.912z
		 M307.533,304.92c0-1.038-0.2-2.017-0.6-2.936s-0.945-1.718-1.638-2.396c-0.693-0.68-1.505-1.219-2.437-1.618
		c-0.933-0.399-1.944-0.599-3.036-0.599c-1.119,0-2.131,0.199-3.036,0.599s-1.678,0.938-2.317,1.618
		c-0.639,0.679-1.125,1.478-1.458,2.396c-0.333,0.919-0.5,1.897-0.5,2.936c0,1.039,0.166,2.018,0.5,2.937
		c0.333,0.919,0.819,1.718,1.458,2.396c0.639,0.679,1.412,1.218,2.317,1.618c0.905,0.399,1.917,0.599,3.036,0.599
		c1.091,0,2.103-0.199,3.036-0.599c0.932-0.4,1.744-0.939,2.437-1.618c0.692-0.679,1.238-1.478,1.638-2.396
		S307.533,305.959,307.533,304.92z"/>
	<path fill="#424143" d="M331.859,310.672c-0.934,1.412-2.084,2.424-3.456,3.036s-2.883,0.919-4.534,0.919
		c-1.411,0-2.689-0.24-3.834-0.719c-1.146-0.479-2.131-1.152-2.956-2.018s-1.458-1.891-1.897-3.076
		c-0.439-1.185-0.658-2.496-0.658-3.935c0-1.384,0.225-2.662,0.678-3.834s1.092-2.19,1.918-3.056
		c0.825-0.865,1.797-1.545,2.916-2.037c1.118-0.493,2.356-0.739,3.715-0.739c1.411,0,2.656,0.246,3.734,0.739
		c1.079,0.492,1.984,1.145,2.717,1.957s1.284,1.737,1.658,2.776c0.372,1.038,0.559,2.091,0.559,3.155v1.678H316.92
		c0,0.506,0.1,1.152,0.299,1.938c0.2,0.785,0.566,1.552,1.099,2.297s1.245,1.385,2.138,1.917c0.891,0.533,2.043,0.799,3.455,0.799
		c1.225,0,2.409-0.293,3.555-0.879c1.145-0.585,2.023-1.384,2.637-2.396L331.859,310.672z M330.021,303.362
		c0-0.825-0.167-1.598-0.5-2.316c-0.333-0.72-0.785-1.352-1.357-1.897c-0.573-0.546-1.252-0.979-2.037-1.299
		c-0.786-0.319-1.618-0.479-2.497-0.479c-1.305,0-2.39,0.267-3.255,0.799c-0.866,0.532-1.552,1.145-2.058,1.837
		c-0.506,0.693-0.866,1.365-1.079,2.018s-0.318,1.099-0.318,1.338H330.021z"/>
</g>
<g enable-background="new    ">
	<path fill="#424143" d="M336.172,283.949h2.396v30.198h-2.396V283.949z"/>
</g>
<g enable-background="new    ">
	<path fill="#424143" d="M343.881,295.693h2.396v3.235h0.08c0.373-0.64,0.84-1.191,1.398-1.658c0.56-0.465,1.164-0.852,1.817-1.158
		c0.652-0.306,1.339-0.532,2.058-0.679s1.424-0.22,2.117-0.22c1.41,0,2.709,0.239,3.895,0.719c1.184,0.479,2.21,1.152,3.075,2.018
		s1.538,1.891,2.018,3.075c0.479,1.186,0.719,2.483,0.719,3.895c0,1.412-0.239,2.71-0.719,3.895
		c-0.479,1.186-1.152,2.211-2.018,3.076s-1.892,1.538-3.075,2.018c-1.186,0.479-2.484,0.719-3.895,0.719
		c-0.693,0-1.398-0.074-2.117-0.22c-0.719-0.146-1.405-0.373-2.058-0.679c-0.653-0.307-1.258-0.692-1.817-1.159
		c-0.559-0.465-1.025-1.019-1.398-1.657h-0.08v12.343h-2.396V295.693z M346.039,304.92c0,1.039,0.199,2.018,0.599,2.937
		s0.944,1.718,1.638,2.396c0.691,0.679,1.504,1.218,2.437,1.618c0.932,0.399,1.943,0.599,3.036,0.599
		c1.118,0,2.13-0.199,3.035-0.599c0.905-0.4,1.678-0.939,2.316-1.618c0.64-0.679,1.125-1.478,1.459-2.396
		c0.332-0.919,0.499-1.897,0.499-2.937c0-1.038-0.167-2.017-0.499-2.936c-0.334-0.919-0.819-1.718-1.459-2.396
		c-0.639-0.68-1.411-1.219-2.316-1.618s-1.917-0.599-3.035-0.599c-1.093,0-2.104,0.199-3.036,0.599
		c-0.933,0.399-1.745,0.938-2.437,1.618c-0.693,0.679-1.238,1.478-1.638,2.396S346.039,303.882,346.039,304.92z"/>
	<path fill="#424143" d="M368.807,283.949h2.396v14.979h0.08c0.479-1.012,1.277-1.884,2.396-2.616s2.423-1.099,3.914-1.099
		c1.438,0,2.609,0.227,3.516,0.679c0.904,0.453,1.617,1.046,2.137,1.777c0.52,0.733,0.879,1.578,1.078,2.537
		c0.2,0.958,0.301,1.944,0.301,2.956v10.984h-2.396v-10.865c0-0.745-0.067-1.471-0.201-2.177c-0.133-0.705-0.365-1.338-0.698-1.897
		c-0.333-0.559-0.799-1.005-1.397-1.338c-0.6-0.333-1.379-0.499-2.338-0.499c-0.879,0-1.711,0.153-2.496,0.459
		c-0.785,0.307-1.465,0.772-2.037,1.398s-1.025,1.411-1.358,2.356s-0.499,2.057-0.499,3.335v9.228h-2.396V283.949z"/>
</g>
<g enable-background="new    ">
	<path fill="#424143" d="M388.818,288.383c0-0.505,0.174-0.932,0.52-1.278c0.346-0.346,0.772-0.519,1.279-0.519
		c0.505,0,0.932,0.173,1.277,0.519c0.346,0.347,0.52,0.773,0.52,1.278c0,0.507-0.174,0.933-0.52,1.278
		c-0.346,0.347-0.772,0.52-1.277,0.52c-0.507,0-0.934-0.173-1.279-0.52C388.992,289.315,388.818,288.89,388.818,288.383z
		 M389.418,295.693h2.396v18.454h-2.396V295.693z"/>
</g>
<g enable-background="new    ">
	<path fill="#424143" d="M411.986,306.398c0,0.905,0.006,1.718,0.02,2.437s0.033,1.385,0.061,1.997
		c0.025,0.613,0.059,1.186,0.1,1.718c0.039,0.533,0.1,1.065,0.18,1.598h-2.237c-0.159-0.905-0.239-1.903-0.239-2.996h-0.08
		c-0.693,1.198-1.552,2.077-2.576,2.637c-1.025,0.56-2.324,0.839-3.895,0.839c-0.799,0-1.585-0.1-2.357-0.3
		c-0.772-0.199-1.465-0.52-2.076-0.959c-0.613-0.439-1.113-1.005-1.498-1.697c-0.387-0.692-0.58-1.531-0.58-2.517
		c0-1.411,0.359-2.529,1.078-3.355c0.72-0.825,1.604-1.444,2.656-1.857c1.053-0.412,2.171-0.679,3.355-0.799
		c1.186-0.12,2.23-0.18,3.137-0.18h2.796v-1.118c0-1.598-0.493-2.742-1.478-3.436c-0.986-0.692-2.225-1.038-3.715-1.038
		c-2.131,0-4.009,0.692-5.633,2.077l-1.398-1.638c0.879-0.853,1.971-1.498,3.275-1.938s2.557-0.659,3.756-0.659
		c2.236,0,4.02,0.526,5.352,1.578s1.998,2.749,1.998,5.093V306.398z M407.192,304.88c-1.013,0-1.991,0.067-2.936,0.2
		c-0.946,0.134-1.798,0.359-2.557,0.679c-0.759,0.32-1.365,0.746-1.817,1.278c-0.453,0.533-0.68,1.198-0.68,1.997
		c0,0.56,0.127,1.059,0.38,1.498s0.579,0.799,0.979,1.079c0.399,0.279,0.845,0.493,1.339,0.639c0.492,0.146,0.991,0.22,1.498,0.22
		c1.277,0,2.329-0.186,3.154-0.56c0.826-0.372,1.484-0.858,1.979-1.458c0.492-0.599,0.832-1.277,1.018-2.037
		c0.187-0.759,0.28-1.523,0.28-2.297v-1.238H407.192z"/>
</g>
<g enable-background="new    ">
	<path fill="#424143" d="M334.141,266.674l9.336-9.924c0.808-0.784,1.432-1.567,1.871-2.352s0.659-1.58,0.659-2.388
		c0-0.345-0.071-0.686-0.214-1.024s-0.348-0.642-0.615-0.908c-0.267-0.268-0.594-0.481-0.979-0.642s-0.822-0.241-1.31-0.241
		c-0.582,0-1.09,0.093-1.523,0.276c-0.434,0.185-0.796,0.437-1.086,0.758c-0.292,0.32-0.515,0.694-0.669,1.122
		s-0.237,0.879-0.249,1.354h-5.363c0-1.401,0.232-2.652,0.695-3.751s1.102-2.024,1.915-2.779c0.813-0.754,1.767-1.327,2.859-1.72
		c1.093-0.392,2.263-0.588,3.511-0.588c1.176,0,2.295,0.179,3.357,0.535c1.063,0.356,2.002,0.879,2.815,1.567
		c0.813,0.689,1.458,1.538,1.933,2.548c0.476,1.01,0.713,2.174,0.713,3.492c0,1.058-0.217,2.034-0.65,2.931
		c-0.434,0.897-1.018,1.755-1.754,2.575l-7.697,8.32h10.066v5.47h-17.621V266.674z"/>
</g>
<g enable-background="new    ">
	<path fill="#424143" d="M365.715,271.556c-1.9,0-3.516-0.35-4.846-1.051c-1.331-0.701-2.415-1.666-3.252-2.896
		c-0.838-1.229-1.449-2.678-1.836-4.347c-0.386-1.669-0.578-3.466-0.578-5.39c0-1.9,0.184-3.691,0.552-5.372s0.968-3.153,1.8-4.419
		c0.831-1.265,1.918-2.266,3.26-3.002c1.343-0.736,2.988-1.104,4.936-1.104c1.925,0,3.555,0.362,4.891,1.087
		c1.337,0.725,2.42,1.71,3.252,2.957s1.435,2.706,1.809,4.374c0.374,1.669,0.561,3.448,0.561,5.337c0,1.912-0.192,3.709-0.578,5.39
		c-0.387,1.681-0.998,3.145-1.836,4.392c-0.837,1.247-1.927,2.233-3.27,2.958C369.236,271.194,367.615,271.556,365.715,271.556z
		 M365.715,266.086c1.057,0,1.897-0.21,2.521-0.632c0.623-0.422,1.102-1.004,1.434-1.746s0.547-1.624,0.642-2.646
		c0.095-1.021,0.143-2.132,0.143-3.331c0-1.177-0.048-2.272-0.143-3.288c-0.095-1.015-0.306-1.899-0.632-2.654
		c-0.328-0.754-0.803-1.345-1.426-1.772c-0.624-0.428-1.459-0.642-2.504-0.642c-1.057,0-1.9,0.214-2.529,0.642
		c-0.63,0.428-1.111,1.019-1.443,1.772c-0.333,0.755-0.55,1.64-0.65,2.654c-0.102,1.016-0.151,2.111-0.151,3.288
		c0,1.199,0.05,2.31,0.151,3.331c0.101,1.022,0.314,1.904,0.641,2.646c0.327,0.742,0.803,1.324,1.426,1.746
		C363.817,265.876,364.657,266.086,365.715,266.086z"/>
	<path fill="#424143" d="M378.881,266.425h2.834v-14.093l-4.152,2.477v-6.201l7.448-4.383l2.583,0.036v22.164h2.852v4.882h-11.564
		V266.425z"/>
</g>
<g enable-background="new    ">
	<path fill="#424143" d="M406.131,252.011c0-0.356-0.08-0.713-0.24-1.069c-0.16-0.355-0.393-0.677-0.695-0.962
		s-0.666-0.517-1.087-0.694c-0.422-0.179-0.888-0.268-1.398-0.268c-0.44,0-0.858,0.074-1.257,0.223
		c-0.397,0.148-0.748,0.348-1.051,0.597c-0.303,0.25-0.543,0.538-0.721,0.864c-0.179,0.327-0.268,0.882-0.268,1.666l-5.541-0.035
		c0.012-1.152,0.23-2.251,0.658-3.297c0.428-1.045,1.025-1.966,1.791-2.762c0.766-0.795,1.689-1.425,2.771-1.889
		c1.081-0.463,2.286-0.694,3.617-0.694c1.259,0,2.435,0.217,3.528,0.65c1.092,0.434,2.042,1.019,2.85,1.755
		c0.809,0.736,1.44,1.586,1.898,2.548c0.457,0.962,0.686,1.972,0.686,3.028c0,1.152-0.238,2.201-0.713,3.146
		s-1.123,1.707-1.941,2.289c0.428,0.238,0.824,0.553,1.193,0.944c0.367,0.392,0.691,0.844,0.971,1.354s0.499,1.068,0.659,1.675
		c0.161,0.605,0.241,1.241,0.241,1.906c0,1.164-0.238,2.269-0.713,3.313c-0.476,1.046-1.132,1.963-1.969,2.753
		c-0.838,0.79-1.826,1.417-2.967,1.88s-2.369,0.694-3.688,0.694c-1.248,0-2.409-0.195-3.484-0.588
		c-1.074-0.392-2.016-0.936-2.823-1.63c-0.808-0.695-1.458-1.515-1.951-2.459s-0.784-1.73-0.873-2.36s-0.14-1.283-0.151-1.96h5.594
		c0.072,1.247,0.432,2.165,1.078,2.753c0.648,0.588,1.541,0.882,2.682,0.882c0.511,0,0.989-0.086,1.435-0.259
		c0.445-0.172,0.835-0.403,1.167-0.694s0.597-0.633,0.793-1.024c0.195-0.393,0.294-0.813,0.294-1.266
		c0-0.475-0.087-0.917-0.259-1.327s-0.418-0.76-0.738-1.051c-0.321-0.291-0.713-0.52-1.177-0.687
		c-0.463-0.166-0.979-0.249-1.55-0.249h-2.494v-4.864h2.529c0.523,0,0.989-0.071,1.398-0.214c0.41-0.143,0.758-0.339,1.043-0.588
		s0.502-0.546,0.65-0.891S406.131,252.427,406.131,252.011z"/>
</g>
<path fill="#B5121B" d="M433.996,315.889v-54.748c0,0-0.822-21.443,24.909-29.381c0,0,12.41-3.376,23.451,1.46
	c11.042,4.837,14.6,13.688,15.328,15.511c0.729,1.826,4.016,10.951-0.729,22.721c0,0-4.38,9.673-13.231,12.137
	c-8.85,2.464-20.984,0.273-23.725-10.859c0,0-0.729-3.741,0.73-7.3c0,0,1.461,2.737,2.828,3.651c1.37,0.912,3.559,2.28,7.393,1.823
	c3.831-0.457,9.124-4.835,8.851-10.675c-0.272-5.84-5.475-12.045-14.233-9.581c0,0-8.577,2.463-8.668,13.687v31.298
	c0,0-0.092,4.746-0.912,6.843c0,0-2.01,8.28-10.859,11.212C445.128,313.688,435.182,316.163,433.996,315.889"/>
<path fill="#FFFFFF" d="M475.775,246.044l0.007-0.004c0,0-7.438-1.734-10.541-5.038c0,0,1.971,3.562-3.49,7.77l0.006,0.001
	c-5.938,4.043-9.143,11.422-7.51,18.868c2.146,9.777,11.812,15.964,21.587,13.82c9.778-2.146,15.965-11.809,13.82-21.588
	C488.085,252.724,482.491,247.498,475.775,246.044"/>
<path fill="#424143" d="M466.731,259.35c0,0,3.092-2,5.456,0c2.363,2.001,4.956,5.275,7.003,4.82c0,0-2.819,4.274-7.139,2.637
	c-4.32-1.637-3.548-6.548-3.548-6.548S468.505,259.213,466.731,259.35"/>
<path fill="#FFFFFF" d="M469.368,260.441c0,0-0.228,3.911,1.911,4.593c0,0-0.364-1.728,0.954-2.456L469.368,260.441z"/>
<path fill="#424143" d="M491.991,261.729c0,0-1.746-2.359-4.374-0.717c-2.626,1.642-5.659,4.511-7.619,3.769
	c0,0,1.777,4.348,6.286,3.346c4.511-1.003,3.968-5.631,3.968-5.631S490.256,261.341,491.991,261.729"/>
<path fill="#FFFFFF" d="M489.558,261.851c0,0,0,4.502-2.954,5.139c0,0,0.406-1.879-0.795-2.789L489.558,261.851z"/>
<path fill="#424143" d="M474.417,275.72c0,0,2.881-1.197,5.247,1.804c0,0,0.722,0.553,0.711-0.348
	c-0.024-1.733-5.321-6.276-9.05-4.457c0,0-2.184,1.072-1.228,3.183C470.818,277.494,473.874,277.432,474.417,275.72"/>
</svg>
